<?xml version="1.0" encoding="UTF-8" standalone="no"?>
<!DOCTYPE svg PUBLIC "-//W3C//DTD SVG 1.1//EN" "http://www.w3.org/Graphics/SVG/1.1/DTD/svg11.dtd">
<svg width="100%" height="100%" viewBox="0 0 57 63" version="1.1" xmlns="http://www.w3.org/2000/svg" xmlns:xlink="http://www.w3.org/1999/xlink" xml:space="preserve" xmlns:serif="http://www.serif.com/" style="fill-rule:evenodd;clip-rule:evenodd;stroke-linejoin:round;stroke-miterlimit:2;">
    <g transform="matrix(1,0,0,1,-19.348793,-24.573088)">
        <g transform="matrix(0.484395,0,0,0.369867,-74.668555,-9.242809)">
            <path d="M292.409,148.426L296.051,148.426C300.042,148.426 303.87,150.502 306.692,154.198C309.514,157.894 311.099,162.907 311.099,168.134L307.099,240.377C307.099,245.604 305.514,250.617 302.692,254.313C299.87,258.009 296.042,260.085 292.051,260.085L213.141,260.085C209.15,260.085 205.322,258.009 202.5,254.313C199.678,250.617 198.092,245.604 198.092,240.377L194.092,168.134C194.092,162.907 195.678,157.894 198.5,154.198C201.322,150.502 205.15,148.426 209.141,148.426L212.783,148.426L214.783,122.933C214.783,105.544 225.562,91.427 238.839,91.427L266.352,91.427C279.629,91.427 290.409,105.544 290.409,122.933L292.409,148.426ZM275.809,148.426L273.809,122.933C273.809,117.543 270.468,113.167 266.352,113.167L238.839,113.167C234.724,113.167 231.383,117.543 231.383,122.933L229.383,148.426L275.809,148.426ZM243.244,206.626L240.244,226.085C240.244,229.826 242.563,232.864 245.42,232.864L259.771,232.864C262.628,232.864 264.947,229.826 264.947,226.085L261.947,206.626C264.462,203.227 267.01,198.596 267.01,193.494C267.01,183.075 260.552,174.617 252.597,174.617L252.595,174.617C244.64,174.617 238.181,183.075 238.181,193.494C238.181,198.596 240.73,203.227 243.244,206.626Z" style="fill:white;"/>
        </g>
    </g>
</svg>
