<?xml version="1.0" encoding="UTF-8" standalone="no"?>
<!DOCTYPE svg PUBLIC "-//W3C//DTD SVG 1.1//EN" "http://www.w3.org/Graphics/SVG/1.1/DTD/svg11.dtd">
<svg width="100%" height="100%" viewBox="0 0 84 85" version="1.1" xmlns="http://www.w3.org/2000/svg" xmlns:xlink="http://www.w3.org/1999/xlink" xml:space="preserve" xmlns:serif="http://www.serif.com/" style="fill-rule:evenodd;clip-rule:evenodd;stroke-linejoin:round;stroke-miterlimit:2;">
    <g transform="matrix(1,0,0,1,-137.158788,-236.706302)">
        <path d="M163.912,320.741C163.912,320.741 146.391,321.901 141.156,311.966C137.04,304.155 137.115,295.086 137.173,289.522C137.268,280.558 140.861,261.995 148.341,256C149.276,262.573 147.51,272.455 150.05,279.335C150.921,281.696 157.66,283.503 159.517,282.244C161.887,280.635 163.694,271.621 162.361,267.603C161.72,265.668 158.114,263.33 158.817,258.694C159.777,252.366 183.694,236.706 183.694,236.706C183.694,236.706 184.742,251.599 185.634,254.02C186.527,256.442 197.511,261.861 200.315,265.3C202.344,267.788 200.359,286.604 200.359,286.604C200.359,286.604 207.787,284.82 209.049,282.991C211.864,278.914 210.85,266.753 210.85,266.753C210.85,266.753 216.838,270.745 219.229,278.531C221.674,286.493 220.515,298.305 219.687,303.042C218.051,312.412 210.763,318.51 203.922,319.7C197.08,320.89 163.912,320.741 163.912,320.741ZM216.765,259.593C216.765,259.593 212.005,258.76 211.41,257.213C210.815,255.666 212.826,249.673 212.826,249.673C212.826,249.673 214.213,253.941 215.394,254.65C215.821,255.092 219.432,255.205 219.62,256C219.927,257.294 216.765,259.593 216.765,259.593ZM148.585,237.52C148.585,237.52 143.706,242.28 143.349,243.827C142.993,245.374 144.063,247.515 144.063,247.515C144.063,247.515 147.038,244.184 148.228,241.923C149.418,239.662 148.585,237.52 148.585,237.52Z" style="fill:rgb(244,0,46);"/>
        <path d="M146.056,288.665C143.759,291.662 144.152,297.087 146.294,304.244C148.328,311.042 154.504,312.335 168.068,314.001C181.633,315.667 193.651,316.024 200.314,312.216C206.977,308.409 210.598,306.538 211.672,299.961C212.624,294.13 211.142,291.283 211.142,291.283C211.142,291.283 207.691,294.13 206.144,295.796C204.597,297.462 191.747,294.725 190.676,294.487C189.605,294.249 192.104,282.113 191.39,277.71C190.676,273.308 184.608,271.285 182.347,269.143C180.086,267.001 177.144,256 177.144,256C177.144,256 173.185,260.933 172.471,263.908C171.757,266.882 175.684,272.672 175.684,275.052C175.684,277.432 171.876,289.966 170.805,291.751C169.734,293.535 156.289,294.249 152.362,293.178C148.435,292.108 146.641,287.902 146.056,288.665Z" style="fill:rgb(249,149,0);"/>
    </g>
</svg>
